<?xml version="1.0" standalone="no"?><!DOCTYPE svg PUBLIC "-//W3C//DTD SVG 1.1//EN" "http://www.w3.org/Graphics/SVG/1.1/DTD/svg11.dtd"><svg t="1582770208372" class="icon" viewBox="0 0 1024 1024" version="1.1" xmlns="http://www.w3.org/2000/svg" p-id="1495" width="100" height="100" xmlns:xlink="http://www.w3.org/1999/xlink"><defs><style type="text/css"></style></defs><path d="M814.08 1003.384l-533.884-145.17a17.452 17.452 0 0 1-12.262-21.422l168.486-619.636a17.452 17.452 0 0 1 21.422-12.262l533.884 145.17a17.452 17.452 0 0 1 12.262 21.422l-32.312 118.836-136.174 500.8a17.454 17.454 0 0 1-21.422 12.262z" fill="#FFE4D1" p-id="1496"></path><path d="M833.09 963.116l-558.232-151.79-6.926 25.468a17.454 17.454 0 0 0 12.262 21.422l533.884 145.17a17.452 17.452 0 0 0 21.422-12.262l7.608-27.98a19.19 19.19 0 0 1-10.018-0.028z" fill="#F2D9C7" p-id="1497"></path><path d="M499.03 278.194a16.508 16.508 0 0 0-20.262 11.598l-114.22 420.06a16.508 16.508 0 0 0 11.6 20.262l420.06 114.22a16.508 16.508 0 0 0 20.262-11.598l97.38-358.136 16.838-61.922a16.512 16.512 0 0 0-11.6-20.264l-420.058-114.22z" fill="#EA82FA" p-id="1498"></path><path d="M189.706 888.474l-136.174-500.8-32.312-118.836a17.452 17.452 0 0 1 12.262-21.422l533.884-145.17a17.452 17.452 0 0 1 21.422 12.262l168.486 619.634a17.452 17.452 0 0 1-12.262 21.422l-533.884 145.17a17.45 17.45 0 0 1-21.422-12.26z" fill="#FFE4D1" p-id="1499"></path><path d="M526.176 175.546a16.508 16.508 0 0 1 20.262 11.598l114.22 420.06a16.508 16.508 0 0 1-11.6 20.262l-420.06 114.22a16.508 16.508 0 0 1-20.262-11.598l-97.38-358.136-16.838-61.922a16.512 16.512 0 0 1 11.6-20.264l420.058-114.22z" fill="#8F95E6" p-id="1500"></path><path d="M789.238 697.04H235.968a17.454 17.454 0 0 1-17.454-17.454V37.454A17.454 17.454 0 0 1 235.968 20h553.27a17.454 17.454 0 0 1 17.454 17.454v642.132a17.454 17.454 0 0 1-17.454 17.454z" fill="#FFEFE4" p-id="1501"></path><path d="M789.238 20H235.968a17.454 17.454 0 0 0-17.454 17.454v40A17.454 17.454 0 0 1 235.968 60h553.27a17.454 17.454 0 0 1 17.454 17.454v-40A17.454 17.454 0 0 0 789.238 20z" fill="#FFF7F2" p-id="1502"></path><path d="M294.948 79.924a16.508 16.508 0 0 0-16.508 16.508v435.312a16.51 16.51 0 0 0 16.51 16.51H730.26a16.508 16.508 0 0 0 16.508-16.508V96.432a16.51 16.51 0 0 0-16.51-16.51H294.948z" fill="#69EBFC" p-id="1503"></path><path d="M444.01 185.764c48.3-0.5 67.944 32.094 67.944 32.094s18.994-31.594 67.294-32.094 84.786 39.936 85.176 77.608c0.39 37.672-5.19 64.656-74.716 123.848-44.052 37.504-75.426 55.412-75.426 55.412s-31.738-17.254-76.558-53.836c-70.736-57.738-76.876-84.602-77.266-122.272-0.388-37.674 35.254-80.26 83.552-80.76z" fill="#FF8354" p-id="1504"></path></svg>